HIERARCHY
ROOT Hips
{
	OFFSET 0.000000 0.000000 0.000000
	CHANNELS 6 Xposition Yposition Zposition Zrotation Yrotation Xrotation 
	JOINT LHipJoint
	{
		OFFSET 0.000000 0.000000 0.000000
		CHANNELS 3 Zrotation Yrotation Xrotation
		JOINT LeftUpLeg
		{
			OFFSET 1.363060 -1.794630 0.839290
			CHANNELS 3 Zrotation Yrotation Xrotation
			JOINT LeftLeg
			{
				OFFSET 2.448110 -6.726130 0.000000
				CHANNELS 3 Zrotation Yrotation Xrotation
				JOINT LeftFoot
				{
					OFFSET 2.562200 -7.039590 0.000000
					CHANNELS 3 Zrotation Yrotation Xrotation
					JOINT LeftToeBase
					{
						OFFSET 0.157640 -0.433110 2.322550
						CHANNELS 3 Zrotation Yrotation Xrotation
						End Site
						{
							OFFSET 0.000000 0.000000 0.000000
						}
					}
				}
			}
		}
	}
	JOINT RHipJoint
	{
		OFFSET 0.000000 0.000000 0.000000
		CHANNELS 3 Zrotation Yrotation Xrotation
		JOINT RightUpLeg
		{
			OFFSET -1.305520 -1.794630 0.839290
			CHANNELS 3 Zrotation Yrotation Xrotation
			JOINT RightLeg
			{
				OFFSET -2.542530 -6.985550 0.000000
				CHANNELS 3 Zrotation Yrotation Xrotation
				JOINT RightFoot
				{
					OFFSET -2.568260 -7.056230 0.000000
					CHANNELS 3 Zrotation Yrotation Xrotation
					JOINT RightToeBase
					{
						OFFSET -0.164730 -0.452590 2.363150
						CHANNELS 3 Zrotation Yrotation Xrotation
						End Site
						{
							OFFSET 0.000000 0.000000 0.000000
						}
					}
				}
			}
		}
	}
}
MOTION
Frames: 33
Frame Time: 0.008333
-1.102922 16.508346 2.009717 -86.141204 81.382163 -70.531209 -9.924515 0.780517 3.334698 -20.448018 -0.758876 -41.223204 -2.619510 -0.167190 21.449697 1.367611 4.545026 -10.674950 179.837500 0.000000 -6.561299 9.789144 -5.306904 -2.469237 13.338195 -20.714697 -16.296493 1.819271 -3.702894 47.020695 1.256281 21.624999 7.894848 4.745300 -0.000000 -76.292700
-0.946300 16.413545 1.994978 -85.261549 81.214399 -69.781632 -9.931892 0.678456 3.460156 -19.855301 -2.050650 -42.312378 -2.321303 0.155763 25.400586 1.606589 5.366413 -12.237045 179.611100 0.000000 -11.321300 9.955962 -5.216835 -2.560604 12.763882 -20.858534 -17.556981 1.432994 -3.913880 50.493523 1.157059 22.038840 9.241029 5.384400 0.000000 -77.535100
-0.795537 16.327670 1.977094 -83.964774 81.107631 -68.633064 -9.932401 0.580277 3.519339 -19.426195 -3.126235 -43.242429 -2.051284 0.450074 29.145138 1.836933 6.195567 -13.744001 179.351000 -0.000000 -14.724300 10.125084 -5.071798 -2.632127 12.128135 -20.756135 -18.870293 1.030452 -4.103617 53.939563 1.041011 21.929255 10.549288 5.909301 0.000000 -78.336700
-0.650621 16.253468 1.956030 -82.263962 81.066766 -67.093030 -9.920291 0.497484 3.516575 -19.192904 -3.976509 -43.925294 -1.825641 0.699861 32.461691 2.061876 7.044306 -15.190378 179.058000 -0.000000 -16.962600 10.292856 -4.872430 -2.680814 11.437708 -20.395904 -20.226616 0.621490 -4.272089 57.310554 0.911252 21.240499 11.724417 6.225300 0.000001 -78.658000
-0.511325 16.192876 1.931766 -80.204830 81.092968 -65.196935 -9.892510 0.438611 3.461630 -19.164444 -4.618649 -44.315004 -1.652971 0.898610 35.208621 2.284850 7.913302 -16.575746 178.732400 -0.000000 -18.255400 10.454327 -4.622744 -2.702910 10.704162 -19.779894 -21.624758 0.214419 -4.420366 60.565333 0.768183 19.960234 12.683858 6.261500 -0.000000 -78.480500
-0.377292 16.147091 1.903875 -77.892423 81.176238 -63.039390 -9.854036 0.404093 3.366043 -19.316375 -5.079224 -44.398991 -1.533828 1.045253 37.316979 2.504926 8.783300 -17.888254 178.379100 -0.000000 -18.790700 10.599679 -4.332675 -2.694199 9.954073 -18.917201 -23.058699 -0.182832 -4.550148 63.661332 0.609991 18.115916 13.361939 5.985199 -0.000000 -77.796500
-0.247995 16.116376 1.871576 -75.510295 81.298874 -60.794964 -9.816369 0.386597 3.241951 -19.597484 -5.389073 -44.187165 -1.462973 1.140862 38.773613 2.715274 9.615358 -19.099086 178.012000 -0.000000 -18.731800 10.716537 -4.017539 -2.651458 9.223426 -17.825146 -24.514637 -0.562329 -4.663427 66.554834 0.433565 15.774000 13.713548 5.408200 0.000000 -76.607500
-0.122853 16.100287 1.834296 -73.271929 81.449195 -58.674380 -9.789604 0.376938 3.100154 -19.954225 -5.583209 -43.693345 -1.432821 1.187279 39.598301 2.905186 10.363075 -20.163611 177.654400 -0.000000 -18.217200 10.797258 -3.692524 -2.575051 8.534573 -16.533727 -25.970421 -0.916764 -4.762137 69.206281 0.235848 13.041710 13.717284 4.585500 -0.000000 -74.919700
-0.001194 16.097777 1.791464 -71.442795 81.616747 -56.941904 -9.783432 0.364710 2.950990 -20.328595 -5.697525 -42.942061 -1.434047 1.187237 39.841039 3.061406 10.975260 -21.033481 177.336500 0.000000 -17.400800 10.836603 -3.373102 -2.466755 7.908302 -15.077215 -27.400652 -1.239064 -4.847721 71.577315 0.015556 10.049299 13.377302 3.600600 -0.000001 -72.770200
0.117724 16.107453 1.742846 -70.285865 81.797703 -55.859601 -9.803033 0.342967 2.804160 -20.672463 -5.770087 -41.962982 -1.457362 1.145074 39.571068 3.171938 11.409377 -21.667093 177.088600 -0.000000 -16.467400 10.834375 -3.071020 -2.330354 7.353983 -13.494777 -28.781146 -1.523404 -4.920959 73.639044 -0.224962 6.943811 12.714726 2.549700 0.000000 -70.150700
0.234707 16.127654 1.688336 -70.082387 81.986436 -55.704426 -9.852871 0.307048 2.670477 -20.940018 -5.839784 -40.800499 -1.492945 1.067331 38.878514 3.227879 11.636450 -22.037245 176.935100 0.000000 -15.597300 10.790600 -2.795308 -2.168772 6.884531 -11.822290 -30.095265 -1.765206 -4.980916 75.366821 -0.480252 3.864381 11.777109 1.524800 0.000000 -67.154800
0.350508 16.156626 1.628254 -71.065196 82.178605 -56.702276 -9.933554 0.257504 2.560797 -21.102187 -5.947646 -39.503795 -1.532332 0.962710 37.859955 3.226103 11.649982 -22.135618 176.887800 -0.000000 -14.948400 10.707690 -2.548938 -1.985597 6.501153 -10.095676 -31.334927 -1.961933 -5.025373 76.748545 -0.741467 0.937938 10.622119 0.600900 0.000000 -63.859400
0.465795 16.192748 1.563199 -73.423962 82.365435 -59.034543 -10.043726 0.198498 2.485634 -21.143455 -6.133373 -38.125531 -1.568569 0.841468 36.613951 3.169276 11.464767 -21.973101 176.944600 -0.000000 -14.615500 10.588491 -2.330243 -1.784237 6.198299 -8.348095 -32.500839 -2.113000 -5.051235 77.784076 -0.997688 -1.733192 9.307216 -0.171400 -0.000000 -60.307000
0.581127 16.234566 1.493964 -77.301084 82.527447 -62.833633 -10.180234 0.136844 2.454293 -21.060271 -6.430487 -36.719628 -1.596634 0.714196 35.233630 3.064745 11.111088 -21.576566 177.091200 -0.000000 -14.612200 10.436166 -2.134002 -1.567202 5.967029 -6.608554 -33.600916 -2.219532 -5.054585 78.480867 -1.238725 -4.081193 7.895496 -0.768400 -0.000000 -56.571000
0.696888 16.280838 1.421482 -82.753009 82.631880 -68.146716 -10.336562 0.081282 2.473322 -20.860424 -6.862716 -35.334642 -1.613899 0.590404 33.798174 2.923111 10.628241 -20.985236 177.305600 -0.000000 -14.880499 10.256045 -1.951934 -1.336199 5.792970 -4.901023 -34.646900 -2.284275 -5.031561 78.852951 -1.456865 -6.074075 6.449226 -1.190800 -0.000001 -52.806600
0.813328 16.330620 1.346704 -89.696445 82.631308 -74.884623 -10.501918 0.041221 2.545064 -20.560320 -7.440239 -34.007016 -1.619938 0.477154 32.366734 2.756139 10.056949 -20.243819 177.563300 0.000001 -15.313800 10.057187 -1.774513 -1.092746 5.658457 -3.245988 -35.650997 -2.311240 -4.979910 78.920612 -1.647298 -7.709414 5.019237 -1.457300 -0.000001 -49.092500
0.930473 16.383219 1.270452 -97.847075 82.465950 -82.762508 -10.662201 0.024351 2.667386 -20.180308 -8.158795 -32.757892 -1.615662 0.377956 30.975419 2.574759 9.433239 -19.394573 177.842200 0.000000 -15.777800 9.852006 -1.593828 -0.837777 5.545476 -1.659831 -36.621832 -2.305084 -4.900030 78.705337 -1.808905 -9.011510 3.651106 -1.597900 0.000000 -45.524200
1.048305 16.438092 1.193419 -106.705252 82.074085 -91.283017 -10.801857 0.034327 2.833776 -19.742473 -9.002886 -31.592709 -1.602609 0.292537 29.640066 2.387706 8.784269 -18.472783 178.124900 -0.000000 -16.158600 9.654749 -1.406113 -0.572324 5.437340 -0.156846 -37.565608 -2.270585 -4.796226 78.228673 -1.943758 -10.023509 2.385702 -1.647499 0.000000 -42.230700
1.166565 16.494794 1.116014 -115.650699 81.405735 -99.834565 -10.909272 0.068991 3.034682 -19.268354 -9.948902 -30.500240 -1.582256 0.217557 28.357827 2.200546 8.127590 -17.499582 178.400400 -0.000000 -16.363700 9.476743 -1.214272 -0.298471 5.319395 1.248319 -38.482948 -2.212014 -4.676414 77.511016 -2.055647 -10.796235 1.253988 -1.639500 0.000000 -39.308800
1.284923 16.552985 1.038398 -124.117217 80.432955 -107.864253 -10.981642 0.121523 3.259385 -18.778246 -10.967912 -29.456598 -1.555921 0.148614 27.114315 2.015429 7.470920 -16.480343 178.663500 0.000000 -16.328700 9.322010 -1.027288 -0.019683 5.180828 2.541531 -39.368022 -2.133010 -4.549648 76.571601 -2.149085 -11.381000 0.275637 -1.601901 -0.000000 -36.829700
1.402978 16.612275 0.960695 -131.737639 79.157030 -115.021597 -11.024449 0.183614 3.497343 -18.290430 -12.029993 -28.432423 -1.525387 0.082388 25.889669 1.831990 6.814444 -15.408035 178.912400 0.000000 -16.034100 9.187480 -0.855860 0.258336 5.014151 3.709282 -40.208824 -2.036808 -4.423352 75.429466 -2.227857 -11.820118 -0.544239 -1.554700 -0.000001 -34.816800
1.520245 16.672177 0.882563 -138.359118 77.597636 -121.172097 -11.049365 0.248133 3.739327 -17.820497 -13.108655 -27.397319 -1.492282 0.017754 24.664855 1.648601 6.154675 -14.267109 179.147500 0.000000 -15.496899 9.064955 -0.708938 0.527718 4.817397 4.739494 -40.988188 -1.925879 -4.301649 74.102422 -2.294080 -12.142050 -1.215033 -1.509000 0.000000 -33.245600
1.636198 16.732237 0.803758 -143.987569 75.788494 -126.341129 -11.070062 0.311352 3.978431 -17.374410 -14.180327 -26.328195 -1.457914 -0.043584 23.431367 1.463015 5.483316 -13.040055 179.368800 0.000000 -14.756800 8.945041 -0.591849 0.781265 4.598728 5.626559 -41.684945 -1.802039 -4.184977 72.605052 -2.348171 -12.361751 -1.755786 -1.469400 0.000000 -32.063300
1.750413 16.791907 0.724067 -148.720198 73.770320 -130.641246 -11.097149 0.372176 4.209814 -16.952775 -15.233156 -25.210089 -1.423054 -0.098199 22.191879 1.274492 4.794763 -11.715497 179.574300 0.000000 -13.888701 8.820655 -0.505508 1.011349 4.371526 6.366885 -42.278425 -1.666184 -4.071847 70.948239 -2.388516 -12.479501 -2.192543 -1.434800 -0.000000 -31.212700
1.862446 16.850560 0.643056 -152.670987 71.578001 -134.198378 -11.138671 0.430941 4.432039 -16.546793 -16.266135 -24.040589 -1.386943 -0.141954 20.964018 1.084023 4.085486 -10.293833 179.759400 -0.000000 -12.985300 8.686674 -0.448725 1.212956 4.154942 6.961651 -42.752288 -1.517958 -3.959781 69.137008 -2.412385 -12.487579 -2.550572 -1.401900 0.000000 -30.652900
1.972086 16.907615 0.560520 -155.962583 69.245945 -137.140089 -11.198144 0.488668 4.646764 -16.142453 -17.292466 -22.829423 -1.348068 -0.170908 19.776925 0.895039 3.358330 -8.790880 179.917100 -0.000000 -12.148100 8.540612 -0.418322 1.383287 3.968181 7.415495 -43.096768 -1.356398 -3.846029 67.171274 -2.416577 -12.374262 -2.850620 -1.366600 0.000001 -30.366300
2.079165 16.962481 0.476226 -158.701134 66.800928 -139.572200 -11.275949 0.546271 4.858476 -15.721695 -18.335020 -21.595594 -1.304070 -0.182322 18.666393 0.712761 2.621988 -7.238072 -179.959600 -0.000000 -11.471100 8.381682 -0.410847 1.522631 3.828198 7.736166 -43.309706 -1.179981 -3.728109 65.047205 -2.398586 -12.131364 -3.106461 -1.326700 0.000000 -30.356000
2.183776 17.014625 0.390104 -160.983340 64.269152 -141.585135 -11.368977 0.604301 5.073778 -15.268862 -19.426271 -20.363111 -1.252704 -0.175204 17.664813 0.543754 1.894861 -5.676907 -179.875800 -0.000001 -11.017300 8.210596 -0.421987 1.633409 3.743985 7.933046 -43.397585 -0.987344 -3.603683 62.759082 -2.357254 -11.757973 -3.324293 -1.281700 -0.000000 -30.631600
2.286200 17.063632 0.302190 -162.893342 61.674392 -143.253042 -11.471953 0.663274 5.299758 -14.771287 -20.597799 -19.156384 -1.192439 -0.150364 16.797250 0.394080 1.199463 -4.153650 -179.832600 0.000000 -10.805000 8.029318 -0.447700 1.720525 3.718318 8.017926 -43.372800 -0.777561 -3.470676 60.302127 -2.293632 -11.265383 -3.504311 -1.233400 -0.000000 -31.192700
2.386740 17.109109 0.212327 -164.495224 59.038618 -144.630104 -11.579384 0.723313 5.541783 -14.222035 -21.872060 -17.996363 -1.122695 -0.110127 16.076488 0.268130 0.559228 -2.711680 -179.826201 -0.000000 -10.796200 7.840039 -0.484490 1.790049 3.748767 8.004290 -43.251593 -0.550103 -3.327266 57.675292 -2.211069 -10.677619 -3.644011 -1.185400 -0.000000 -32.010399
2.485934 17.150768 0.120562 -165.848637 56.387210 -145.765005 -11.684865 0.785046 5.803697 -13.621932 -23.260616 -16.897746 -1.044511 -0.057954 15.499568 0.168195 -0.002678 -1.383241 -179.848500 -0.000000 -10.911300 7.646134 -0.529064 1.849202 3.827159 7.905772 -43.054074 -0.305318 -3.171783 54.884411 -2.114832 -10.028151 -3.742454 -1.141000 0.000000 -33.020200
2.584204 17.188394 0.026663 -166.994656 53.745155 -146.691919 -11.784235 0.849038 6.084924 -12.976686 -24.753389 -15.867842 -0.959838 0.002414 15.052144 0.093900 -0.471489 -0.187252 -179.889499 -0.000000 -11.036200 7.450342 -0.579216 1.904945 3.946159 7.737048 -42.800213 -0.043723 -3.002699 51.942013 -2.011391 -9.356120 -3.801724 -1.103600 0.000000 -34.141600
2.682080 17.221816 -0.069514 -167.970637 51.140187 -147.443096 -11.874431 0.916413 6.381865 -12.298117 -26.322723 -14.906987 -0.871701 0.067265 14.709437 0.042802 -0.841474 0.873819 -179.939200 0.000000 -11.057099 7.255658 -0.633458 1.963860 4.099768 7.511638 -42.509970 0.233686 -2.818568 48.868659 -1.907125 -8.698435 -3.827364 -1.075099 0.000000 -35.300300
